<svg width="20" height="20" viewBox="0 0 20 20" fill="none" xmlns="http://www.w3.org/2000/svg">
    <path d="M14.1667 15C13.2417 15 12.5 15.7416 12.5 16.6666C12.5 17.1087 12.6756 17.5326 12.9882 17.8451C13.3008 18.1577 13.7247 18.3333 14.1667 18.3333C14.6087 18.3333 15.0327 18.1577 15.3452 17.8451C15.6578 17.5326 15.8334 17.1087 15.8334 16.6666C15.8334 16.2246 15.6578 15.8007 15.3452 15.4881C15.0327 15.1756 14.6087 15 14.1667 15ZM0.833374 1.66663V3.33329H2.50004L5.50004 9.65829L4.36671 11.7C4.24171 11.9333 4.16671 12.2083 4.16671 12.5C4.16671 12.942 4.3423 13.3659 4.65486 13.6785C4.96742 13.991 5.39135 14.1666 5.83337 14.1666H15.8334V12.5H6.18337C6.12812 12.5 6.07513 12.478 6.03606 12.4389C5.99699 12.3999 5.97504 12.3469 5.97504 12.2916C5.97504 12.25 5.98337 12.2166 6.00004 12.1916L6.75004 10.8333H12.9584C13.5834 10.8333 14.1334 10.4833 14.4167 9.97496L17.4 4.58329C17.4584 4.44996 17.5 4.30829 17.5 4.16663C17.5 3.94561 17.4122 3.73365 17.256 3.57737C17.0997 3.42109 16.8877 3.33329 16.6667 3.33329H4.34171L3.55837 1.66663M5.83337 15C4.90837 15 4.16671 15.7416 4.16671 16.6666C4.16671 17.1087 4.3423 17.5326 4.65486 17.8451C4.96742 18.1577 5.39135 18.3333 5.83337 18.3333C6.2754 18.3333 6.69932 18.1577 7.01188 17.8451C7.32445 17.5326 7.50004 17.1087 7.50004 16.6666C7.50004 16.2246 7.32445 15.8007 7.01188 15.4881C6.69932 15.1756 6.2754 15 5.83337 15Z" fill="#10217D"/>
</svg>
