<svg width="60" height="60" viewBox="0 0 60 60" fill="none" xmlns="http://www.w3.org/2000/svg">
    <circle opacity="0.1" cx="30" cy="30" r="30" fill="#2F80ED"/>
    <path d="M36.9679 15H23.0663C22.4976 15 22.0366 15.461 22.0366 16.0297V21.0755C22.0366 21.6442 22.4976 22.1052 23.0663 22.1052H36.9679C37.5367 22.1052 37.9977 21.6442 37.9977 21.0755V16.0297C37.9977 15.461 37.5367 15 36.9679 15ZM35.9382 20.0457H24.0961V17.0595H35.9382V20.0457H35.9382Z" fill="#10217D"/>
    <path d="M35.4919 21.11H33.4324V25.8468H35.4919V21.11Z" fill="#10217D"/>
    <path d="M26.5676 21.11H24.5081V25.8468H26.5676V21.11Z" fill="#10217D"/>
    <path d="M37.4827 24.8169H22.5171C21.5707 24.8169 20.8008 25.5868 20.8008 26.5331V43.2837C20.8008 44.23 21.5707 45 22.5171 45H37.4827C38.4291 45 39.199 44.23 39.199 43.2837V26.5331C39.199 25.5868 38.4291 24.8169 37.4827 24.8169ZM37.1395 42.9405H22.8603V26.8764H37.1395V42.9405Z" fill="#10217D"/>
    <path d="M29.9999 30.2059C29.4312 30.2059 28.9702 30.6668 28.9702 31.2356V38.5812C28.9702 39.1499 29.4312 39.6109 29.9999 39.6109C30.5687 39.6109 31.0297 39.1499 31.0297 38.5812V31.2356C31.0297 30.6668 30.5687 30.2059 29.9999 30.2059Z" fill="#10217D"/>
    <path d="M33.6729 33.8787H26.3273C25.7586 33.8787 25.2976 34.3397 25.2976 34.9085C25.2976 35.4772 25.7586 35.9382 26.3273 35.9382H33.6729C34.242 35.9382 34.7026 35.4772 34.7026 34.9085C34.7026 34.3397 34.2416 33.8787 33.6729 33.8787Z" fill="#10217D"/>
</svg>
