<svg width="27" height="24" viewBox="0 0 27 24" fill="none" xmlns="http://www.w3.org/2000/svg">
    <rect width="27" height="24" rx="4" fill="#16C2D5"/>
    <g clip-path="url(#clip0_22_1526)">
        <path fill-rule="evenodd" clip-rule="evenodd" d="M12.8016 6.05267C12.862 6.01815 12.9304 6 13 6C13.0696 6 13.138 6.01815 13.1984 6.05267L18.7984 9.25267C18.8596 9.28764 18.9105 9.33817 18.9459 9.39915C18.9813 9.46012 19 9.52937 19 9.59987V10.1759C19 11.9406 18.4251 13.6574 17.3623 15.0662C16.2994 16.4751 14.8065 17.4993 13.1096 17.9839C13.038 18.0043 12.962 18.0043 12.8904 17.9839C11.1936 17.4991 9.70085 16.4748 8.63806 15.066C7.57526 13.6572 7.00024 11.9406 7 10.1759L7 9.59987C7.00002 9.52937 7.01868 9.46012 7.05408 9.39915C7.08949 9.33817 7.14038 9.28764 7.2016 9.25267L12.8016 6.05267ZM12.6576 14.5687L16.112 10.2495L15.488 9.75027L12.5424 13.4311L10.456 11.6927L9.944 12.3071L12.6576 14.5687Z" fill="white"/>
    </g>
    <defs>
        <clipPath id="clip0_22_1526">
            <rect width="12" height="12" fill="white" transform="translate(7 6)"/>
        </clipPath>
    </defs>
</svg>
