<svg width="54" height="18" viewBox="0 0 54 18" fill="none" xmlns="http://www.w3.org/2000/svg">
    <rect width="53.25" height="18" rx="3" fill="#16C2D5"/>
    <path d="M25.7365 7.18182C25.695 6.83097 25.5265 6.55859 25.231 6.3647C24.9355 6.17081 24.5732 6.07386 24.1438 6.07386C23.8299 6.07386 23.5552 6.12464 23.3198 6.22621C23.0866 6.32777 22.9043 6.46742 22.7727 6.64515C22.6435 6.82289 22.5788 7.02486 22.5788 7.25106C22.5788 7.44034 22.6238 7.60307 22.7139 7.73926C22.8062 7.87314 22.9239 7.98508 23.067 8.07511C23.2101 8.16282 23.3602 8.23553 23.5171 8.29323C23.6741 8.34863 23.8184 8.39364 23.9499 8.42827L24.6701 8.62216C24.8548 8.67063 25.0602 8.73757 25.2864 8.82298C25.5149 8.90838 25.733 9.02495 25.9408 9.17267C26.1508 9.31809 26.324 9.50506 26.4601 9.73358C26.5963 9.96209 26.6644 10.2425 26.6644 10.5749C26.6644 10.9581 26.564 11.3043 26.3632 11.6136C26.1647 11.9229 25.8738 12.1688 25.4907 12.3511C25.1098 12.5335 24.647 12.6246 24.1023 12.6246C23.5945 12.6246 23.1547 12.5427 22.7831 12.3788C22.4138 12.2149 22.123 11.9864 21.9106 11.6933C21.7006 11.4001 21.5817 11.0597 21.554 10.6719H22.4403C22.4634 10.9396 22.5534 11.1612 22.7104 11.3366C22.8697 11.5098 23.0705 11.639 23.3129 11.7244C23.5575 11.8075 23.8207 11.8491 24.1023 11.8491C24.43 11.8491 24.7243 11.796 24.9852 11.6898C25.246 11.5813 25.4526 11.4313 25.6049 11.2397C25.7573 11.0458 25.8335 10.8196 25.8335 10.5611C25.8335 10.3256 25.7677 10.1341 25.6361 9.98633C25.5045 9.8386 25.3314 9.71857 25.1167 9.62624C24.9021 9.53391 24.6701 9.45312 24.4208 9.38388L23.5483 9.13459C22.9943 8.97532 22.5558 8.74796 22.2326 8.4525C21.9094 8.15705 21.7479 7.77042 21.7479 7.29261C21.7479 6.8956 21.8552 6.54936 22.0699 6.25391C22.2868 5.95614 22.5777 5.72532 22.9424 5.56143C23.3094 5.39524 23.7191 5.31214 24.1715 5.31214C24.6286 5.31214 25.0348 5.39409 25.3903 5.55797C25.7457 5.71955 26.0273 5.94114 26.2351 6.22274C26.4451 6.50435 26.5559 6.82404 26.5675 7.18182H25.7365ZM29.5304 12.6246C29.1934 12.6246 28.8875 12.5612 28.6129 12.4342C28.3382 12.305 28.1201 12.1191 27.9585 11.8768C27.7969 11.6321 27.7161 11.3366 27.7161 10.9904C27.7161 10.6857 27.7761 10.4387 27.8962 10.2495C28.0162 10.0579 28.1766 9.90785 28.3774 9.79936C28.5782 9.69087 28.7998 9.61009 29.0422 9.557C29.2869 9.5016 29.5327 9.45774 29.7797 9.42543C30.1028 9.38388 30.3648 9.35272 30.5656 9.33194C30.7688 9.30886 30.9165 9.27077 31.0088 9.21768C31.1034 9.1646 31.1508 9.07227 31.1508 8.9407V8.913C31.1508 8.57138 31.0573 8.30593 30.8703 8.11665C30.6857 7.92738 30.4052 7.83274 30.029 7.83274C29.6389 7.83274 29.333 7.91815 29.1114 8.08896C28.8898 8.25977 28.734 8.44212 28.644 8.63601L27.8685 8.35902C28.0069 8.03587 28.1916 7.78427 28.4224 7.60423C28.6556 7.42187 28.9095 7.29492 29.1841 7.22337C29.4611 7.1495 29.7335 7.11257 30.0013 7.11257C30.1721 7.11257 30.3683 7.13335 30.5899 7.17489C30.8138 7.21413 31.0296 7.29608 31.2373 7.42072C31.4474 7.54537 31.6216 7.73349 31.7601 7.98509C31.8986 8.23668 31.9679 8.57369 31.9679 8.99609V12.5H31.1508V11.7798H31.1092C31.0538 11.8952 30.9615 12.0187 30.8322 12.1503C30.703 12.2819 30.531 12.3938 30.3163 12.4862C30.1017 12.5785 29.8397 12.6246 29.5304 12.6246ZM29.655 11.8906C29.9782 11.8906 30.2506 11.8271 30.4721 11.7002C30.696 11.5732 30.8645 11.4094 30.9777 11.2085C31.0931 11.0077 31.1508 10.7965 31.1508 10.5749V9.82706C31.1161 9.86861 31.04 9.90669 30.9223 9.94132C30.8068 9.97363 30.673 10.0025 30.5206 10.0279C30.3706 10.051 30.224 10.0717 30.0809 10.0902C29.9401 10.1064 29.8258 10.1202 29.7381 10.1317C29.5258 10.1594 29.3273 10.2045 29.1426 10.2668C28.9602 10.3268 28.8125 10.418 28.6994 10.5403C28.5886 10.6603 28.5332 10.8242 28.5332 11.032C28.5332 11.3159 28.6383 11.5305 28.8483 11.676C29.0607 11.8191 29.3296 11.8906 29.655 11.8906ZM35.8275 7.18182V7.87429H32.9607V7.18182H35.8275ZM33.8194 12.5V6.4478C33.8194 6.14311 33.8909 5.8892 34.034 5.68608C34.1772 5.48295 34.363 5.33061 34.5915 5.22905C34.82 5.12749 35.0612 5.0767 35.3151 5.0767C35.5159 5.0767 35.6798 5.09286 35.8068 5.12518C35.9337 5.15749 36.0284 5.1875 36.0907 5.2152L35.8552 5.92152C35.8137 5.90767 35.756 5.89036 35.6821 5.86958C35.6106 5.84881 35.5159 5.83842 35.3982 5.83842C35.1282 5.83842 34.9331 5.90652 34.8131 6.0427C34.6954 6.17889 34.6365 6.37855 34.6365 6.64169V12.5H33.8194ZM38.9835 12.6108C38.4711 12.6108 38.029 12.4977 37.6574 12.2715C37.2881 12.043 37.003 11.7244 36.8022 11.3159C36.6037 10.905 36.5044 10.4272 36.5044 9.88246C36.5044 9.33771 36.6037 8.8576 36.8022 8.44212C37.003 8.02433 37.2823 7.69886 37.6401 7.46573C38.0002 7.23029 38.4203 7.11257 38.9004 7.11257C39.1774 7.11257 39.4509 7.15874 39.721 7.25106C39.991 7.34339 40.2369 7.49343 40.4585 7.70117C40.68 7.9066 40.8566 8.17898 40.9882 8.51829C41.1198 8.8576 41.1855 9.27539 41.1855 9.77166V10.1179H37.0861V9.41158H40.3546C40.3546 9.11151 40.2946 8.84375 40.1745 8.60831C40.0568 8.37287 39.8883 8.18706 39.669 8.05087C39.4521 7.91468 39.1958 7.84659 38.9004 7.84659C38.5749 7.84659 38.2933 7.92738 38.0556 8.08896C37.8201 8.24822 37.6389 8.45597 37.512 8.71218C37.385 8.96839 37.3216 9.24308 37.3216 9.53622V10.0071C37.3216 10.4087 37.3908 10.7492 37.5293 11.0285C37.6701 11.3055 37.8651 11.5167 38.1144 11.6621C38.3637 11.8052 38.6534 11.8768 38.9835 11.8768C39.1982 11.8768 39.392 11.8468 39.5652 11.7868C39.7406 11.7244 39.8918 11.6321 40.0187 11.5098C40.1457 11.3851 40.2438 11.2305 40.313 11.0458L41.1025 11.2674C41.0194 11.5352 40.8797 11.7706 40.6835 11.9737C40.4873 12.1745 40.2449 12.3315 39.9564 12.4446C39.6679 12.5554 39.3436 12.6108 38.9835 12.6108Z" fill="white"/>
    <g clip-path="url(#clip0_45_7322)">
        <path fill-rule="evenodd" clip-rule="evenodd" d="M9.6012 4.5395C9.64652 4.51362 9.69781 4.5 9.75 4.5C9.80219 4.5 9.85348 4.51362 9.8988 4.5395L14.0988 6.9395C14.1447 6.96573 14.1829 7.00363 14.2094 7.04936C14.236 7.09509 14.25 7.14702 14.25 7.1999V7.6319C14.25 8.95549 13.8188 10.243 13.0217 11.2997C12.2246 12.3563 11.1049 13.1245 9.8322 13.4879C9.77847 13.5032 9.72153 13.5032 9.6678 13.4879C8.39519 13.1243 7.27564 12.3561 6.47854 11.2995C5.68145 10.2429 5.25018 8.95544 5.25 7.6319V7.1999C5.25002 7.14702 5.26401 7.09509 5.29056 7.04936C5.31712 7.00363 5.35528 6.96573 5.4012 6.9395L9.6012 4.5395ZM9.4932 10.9265L12.084 7.6871L11.616 7.3127L9.4068 10.0733L7.842 8.7695L7.458 9.2303L9.4932 10.9265Z" fill="white"/>
    </g>
    <defs>
        <clipPath id="clip0_45_7322">
            <rect width="9" height="9" fill="white" transform="translate(5.25 4.5)"/>
        </clipPath>
    </defs>
</svg>
